<svg width="435" height="242" viewBox="0 0 435 242" fill="none" xmlns="http://www.w3.org/2000/svg">
<path d="M192.52 2.65694C193.07 2.15694 195.32 1.29694 197.52 0.756944C199.72 0.206944 205.57 -0.113056 210.52 0.0369444C216.07 0.206944 221.71 1.05694 225.22 2.24694C230.62 4.06694 231.01 4.07694 232.72 2.44694C234.43 0.806944 234.71 0.846945 238.27 3.19694C241.36 5.23694 241.95 6.14694 241.64 8.41694C241.36 10.4269 242.28 12.5169 245.05 16.1669C247.14 18.9169 249.93 23.1869 251.26 25.6669C252.59 28.1369 254.25 33.3169 254.94 37.1669C255.63 41.0169 256 45.0669 255.76 46.1669C255.39 47.8869 255.16 47.7469 254.1 45.1669C253.42 43.5169 250.92 39.4669 248.56 36.1669C246.19 32.8669 242.06 28.0369 239.39 25.4369C234.54 20.7169 234.51 20.7069 232.52 22.6569C231.42 23.7369 230.07 24.6269 229.52 24.6269C228.97 24.6269 226.1 28.1169 223.13 32.3969C220.17 36.6669 212.03 48.7169 205.04 59.1669C198.05 69.6169 191.93 78.9969 191.43 80.0169C190.66 81.5769 188.81 79.7169 168.02 53.6669L163.27 59.9169C160.65 63.3569 153.6 72.9169 147.6 81.1669C141.61 89.4169 134.29 99.4269 131.36 103.417C128.42 107.407 126.13 110.857 126.27 111.087C126.41 111.317 133.5 105.027 142.02 97.1069C150.54 89.1769 157.97 82.6769 158.52 82.6569C159.07 82.6369 160.87 83.9969 162.52 85.6669C164.17 87.3369 165.75 88.7069 166.02 88.6969C166.29 88.6969 168.21 85.5369 170.27 81.6769C172.33 77.8269 174.36 74.6769 174.77 74.6969C175.18 74.7069 180.12 78.1969 185.75 82.4469C194.62 89.1369 197.45 92.0969 218.23 119.167L189.38 119.437C173.51 119.577 148.05 119.577 105.11 119.167L126.62 90.6669C138.45 74.9869 152.5 56.4169 157.83 49.3869C163.16 42.3569 167.63 36.6169 167.77 36.6369C167.91 36.6469 170.37 39.7069 173.25 43.4169C176.13 47.1269 180.63 52.7569 188.02 61.6669L194.71 52.9169C198.38 48.1069 203.87 41.0169 206.91 37.1669C209.94 33.3169 214.38 27.6969 216.76 24.6669C219.15 21.6369 221.08 18.2669 221.04 17.1669C221.01 16.0669 221.56 14.6469 222.25 14.0069C223.26 13.0869 223 12.5269 221.02 11.3169C219.65 10.4769 215.15 8.69694 211.02 7.36694C206.9 6.02694 200.82 4.62694 197.52 4.24694C193.82 3.82694 191.9 3.21694 192.52 2.65694Z" fill="#8F7353"/>
<path d="M260.8 53.1669L260.66 44.3969C260.56 38.3569 260.83 36.0469 261.52 36.9669C262.07 37.6969 267.25 44.2869 273.02 51.6169C278.79 58.9369 293.04 77.1269 325.83 119.167L279.18 119.417C235.89 119.647 232.4 119.537 230.82 117.917C229.89 116.957 221.88 107.167 196.91 76.1669L200.72 72.8169C202.81 70.9669 208.46 66.1269 213.27 62.0669C218.08 57.9969 222.36 54.6469 222.77 54.6169C223.18 54.5969 225.54 57.0969 228.02 60.1669C230.5 63.2369 232.86 65.7369 233.27 65.7169C233.68 65.6869 236.16 63.1869 238.77 60.1469C241.38 57.1069 243.86 54.6369 244.27 54.6469C244.68 54.6569 252.22 59.6169 261.02 65.6669C269.82 71.7169 277.36 76.6769 277.77 76.6969C278.18 76.7069 277.59 75.6969 276.45 74.4469C275.31 73.1869 271.32 67.8869 260.8 53.1669Z" fill="#8F7353"/>
<path d="M6.47662 208V140.32H21.1646L44.4926 182.08H41.1326L64.3646 140.32H78.6686V208H62.7326V167.776H64.7486L47.2766 198.016H37.6766L20.2046 167.68H22.4126V208H6.47662ZM89.4964 152.608V137.152H107.448V152.608H89.4964ZM89.9764 208V160.768H107.064V208H89.9764ZM116.976 208V160.768H133.584V169.024H132.528C134.064 166.016 136.24 163.712 139.056 162.112C141.936 160.512 145.2 159.712 148.848 159.712C152.624 159.712 155.728 160.448 158.16 161.92C160.592 163.328 162.416 165.568 163.632 168.64C164.848 171.648 165.456 175.456 165.456 180.064V208H148.368V180.736C148.368 178.816 148.144 177.28 147.696 176.128C147.248 174.912 146.576 174.048 145.68 173.536C144.848 173.024 143.792 172.768 142.512 172.768C140.784 172.768 139.28 173.152 138 173.92C136.72 174.624 135.728 175.648 135.024 176.992C134.384 178.336 134.064 179.936 134.064 181.792V208H116.976ZM200.923 209.056C195.163 209.056 190.171 208.064 185.947 206.08C181.787 204.032 178.587 201.152 176.347 197.44C174.107 193.728 172.987 189.344 172.987 184.288C172.987 179.424 174.043 175.168 176.155 171.52C178.331 167.808 181.275 164.928 184.987 162.88C188.763 160.768 193.051 159.712 197.851 159.712C202.651 159.712 206.779 160.704 210.235 162.688C213.691 164.672 216.347 167.52 218.203 171.232C220.123 174.88 221.083 179.168 221.083 184.096V187.84H187.291V179.776H208.603L207.067 181.024C207.067 177.568 206.331 175.008 204.859 173.344C203.387 171.616 201.307 170.752 198.619 170.752C196.635 170.752 194.907 171.232 193.435 172.192C192.027 173.088 190.939 174.432 190.171 176.224C189.403 178.016 189.019 180.256 189.019 182.944V183.808C189.019 186.816 189.435 189.248 190.267 191.104C191.163 192.96 192.539 194.336 194.395 195.232C196.251 196.064 198.587 196.48 201.403 196.48C203.835 196.48 206.363 196.128 208.987 195.424C211.675 194.656 214.043 193.568 216.091 192.16L220.315 203.392C217.883 205.12 214.907 206.496 211.387 207.52C207.867 208.544 204.379 209.056 200.923 209.056ZM228.445 208V160.768H245.053V172.384H244.093C244.733 168.544 246.333 165.568 248.893 163.456C251.517 161.28 254.941 160.064 259.165 159.808L263.869 159.424L264.829 173.824L255.517 174.688C252.125 175.008 249.661 175.968 248.125 177.568C246.589 179.104 245.821 181.408 245.821 184.48V208H228.445ZM271.414 208V140.32H286.102L309.43 182.08H306.07L329.302 140.32H343.606V208H327.67V167.776H329.686L312.214 198.016H302.614L285.142 167.68H287.35V208H271.414ZM354.434 152.608V137.152H372.386V152.608H354.434ZM354.914 208V160.768H372.002V208H354.914ZM374.714 208L397.85 179.872V187.456L375.962 160.768H395.834L407.45 175.744H401.498L413.114 160.768H432.89L411.002 187.456V179.872L434.33 208H414.362L401.498 191.68H407.354L394.49 208H374.714Z" fill="#8F7353"/>
</svg>
