<svg width="221" height="120" viewBox="0 0 221 120" fill="none" xmlns="http://www.w3.org/2000/svg">
<path d="M87.41 2.65694C87.96 2.15694 90.21 1.29694 92.41 0.756944C94.61 0.206944 100.46 -0.113056 105.41 0.0369444C110.96 0.206944 116.6 1.05694 120.11 2.24694C125.51 4.06694 125.9 4.07694 127.61 2.44694C129.32 0.806944 129.6 0.846945 133.16 3.19694C136.25 5.23694 136.84 6.14694 136.53 8.41694C136.25 10.4269 137.17 12.5169 139.94 16.1669C142.03 18.9169 144.82 23.1869 146.15 25.6669C147.48 28.1369 149.14 33.3169 149.83 37.1669C150.52 41.0169 150.89 45.0669 150.65 46.1669C150.28 47.8869 150.05 47.7469 148.99 45.1669C148.31 43.5169 145.81 39.4669 143.45 36.1669C141.08 32.8669 136.95 28.0369 134.28 25.4369C129.43 20.7169 129.4 20.7069 127.41 22.6569C126.31 23.7369 124.96 24.6269 124.41 24.6269C123.86 24.6269 120.99 28.1169 118.02 32.3969C115.06 36.6669 106.92 48.7169 99.93 59.1669C92.94 69.6169 86.82 78.9969 86.32 80.0169C85.55 81.5769 83.7 79.7169 62.91 53.6669L58.16 59.9169C55.54 63.3569 48.49 72.9169 42.49 81.1669C36.5 89.4169 29.18 99.4269 26.25 103.417C23.31 107.407 21.02 110.857 21.16 111.087C21.3 111.317 28.39 105.027 36.91 97.1069C45.43 89.1769 52.86 82.6769 53.41 82.6569C53.96 82.6369 55.76 83.9969 57.41 85.6669C59.06 87.3369 60.64 88.7069 60.91 88.6969C61.18 88.6969 63.1 85.5369 65.16 81.6769C67.22 77.8269 69.25 74.6769 69.66 74.6969C70.07 74.7069 75.01 78.1969 80.64 82.4469C89.51 89.1369 92.34 92.0969 113.12 119.167L84.27 119.437C68.4 119.577 42.94 119.577 0 119.167L21.51 90.6669C33.34 74.9869 47.39 56.4169 52.72 49.3869C58.05 42.3569 62.52 36.6169 62.66 36.6369C62.8 36.6469 65.26 39.7069 68.14 43.4169C71.02 47.1269 75.52 52.7569 82.91 61.6669L89.6 52.9169C93.27 48.1069 98.76 41.0169 101.8 37.1669C104.83 33.3169 109.27 27.6969 111.65 24.6669C114.04 21.6369 115.97 18.2669 115.93 17.1669C115.9 16.0669 116.45 14.6469 117.14 14.0069C118.15 13.0869 117.89 12.5269 115.91 11.3169C114.54 10.4769 110.04 8.69694 105.91 7.36694C101.79 6.02694 95.71 4.62694 92.41 4.24694C88.71 3.82694 86.79 3.21694 87.41 2.65694Z" fill="#8F7353"/>
<path d="M155.69 53.1669L155.55 44.3969C155.45 38.3569 155.72 36.0469 156.41 36.9669C156.96 37.6969 162.14 44.2869 167.91 51.6169C173.68 58.9369 187.93 77.1269 220.72 119.167L174.07 119.417C130.78 119.647 127.29 119.537 125.71 117.917C124.78 116.957 116.77 107.167 91.8 76.1669L95.61 72.8169C97.7 70.9669 103.35 66.1269 108.16 62.0669C112.97 57.9969 117.25 54.6469 117.66 54.6169C118.07 54.5969 120.43 57.0969 122.91 60.1669C125.39 63.2369 127.75 65.7369 128.16 65.7169C128.57 65.6869 131.05 63.1869 133.66 60.1469C136.27 57.1069 138.75 54.6369 139.16 54.6469C139.57 54.6569 147.11 59.6169 155.91 65.6669C164.71 71.7169 172.25 76.6769 172.66 76.6969C173.07 76.7069 172.48 75.6969 171.34 74.4469C170.2 73.1869 166.21 67.8869 155.69 53.1669Z" fill="#8F7353"/>
</svg>